<svg xmlns="http://www.w3.org/2000/svg" width="128" height="128" fill="none" viewBox="0 0 128 128" id="pin">
  <path stroke="#000" stroke-width="7" d="M36 44.6947C36 28.9546 48.7599 16 64.5 16V16C80.2401 16 93 28.9546 93 44.6947V44.6947C93 49.7722 91.6552 54.8121 89.1023 59.2012L78.75 77L78.3307 77.7209C72.178 88.2992 69.1017 93.5883 64.5 93.5883C59.8983 93.5883 56.822 88.2992 50.6693 77.7209L50.25 77L39.8977 59.2012C37.3448 54.8121 36 49.7722 36 44.6947V44.6947Z"></path>
  <path fill="#000" d="M74.5 43.5C74.5 49.0228 70.0228 53.5 64.5 53.5V46.5C66.1569 46.5 67.5 45.1569 67.5 43.5H74.5ZM64.5 53.5C58.9772 53.5 54.5 49.0228 54.5 43.5H61.5C61.5 45.1569 62.8431 46.5 64.5 46.5V53.5ZM54.5 43.5C54.5 37.9772 58.9772 33.5 64.5 33.5V40.5C62.8431 40.5 61.5 41.8431 61.5 43.5H54.5ZM64.5 33.5C70.0228 33.5 74.5 37.9772 74.5 43.5H67.5C67.5 41.8431 66.1569 40.5 64.5 40.5V33.5Z"></path>
  <path stroke="#000" stroke-linecap="round" stroke-width="7" d="M31.9021 89C23.3213 90.9062 18 93.5591 18 96.4929C18 102.296 38.8188 107 64.5 107C90.1812 107 111 102.296 111 96.4929C111 93.5591 105.679 90.9062 97.0979 89"></path>
</svg>
